Patient4_TMGait_0pt6_02_left_02_EMG.mot
version=1
nRows=20
nColumns=33
inDegrees=no
endheader
time	1LAddLong	2LGlutMax	3LGlutMed	4LIliopsoas	5LSemiMemb	6LBicFemLong	7LRecFem	8LVastMed	9LVastLat	10LGasMed	11LTibAnt	12lTibPost	13LPeroneusLong	14LSol	15LExtDigLong	16LFlexDigLong	17RAddLong	18RGlutMax	19RGlutMed	20RIliopsoas	21RSemiMemb	22RBicFemLong	23RRecFem	24RVastMed	25RVastLat	26RGasMed	27RTibAnt	28RTibPost	29RPeroneusLong	30RSol	31RExtDigLong	32RFlexDigLong
3.59	0.018158	0.15823	-0.016937	0.003204	0.030823	-0.074158	0.016479	0	0.096741	-0.047455	-0.071869	0.009308	0.12131	0.14664	0.35004	0.009918	0.001526	-0.075989	0.1236	0.063629	0.014496	0.013428	0.29236	0.017548	0.001678	-0.00824	0.22995	-0.010071	0.56168	0.13534	-0.001373	-0.018463
3.591	0.016327	0.14267	-0.019379	0.012054	0.051422	-0.098267	0.006714	-0.011444	0.1001	-0.047913	-0.18417	0.002136	0.14008	0.22293	0.25177	0.002747	0.040283	-0.12787	-0.36362	0.066681	0.025787	-0.0177	0.40268	0.067902	-0.014954	0.002136	-0.042572	-0.009308	0.74997	0.071716	-0.003204	-0.012054
3.592	0.018616	0.13458	-0.018158	0.013275	0.031128	-0.10361	0.014343	-0.003052	0.10208	-0.047302	-0.15762	0.000458	0.13565	0.23117	-0.18982	-0.001068	0.046387	-0.091705	-0.60242	0.019989	-0.046997	-0.020142	0.42023	-0.005035	-0.001831	0.012817	-0.51682	0.018616	-0.70725	-0.090179	-0.000458	-0.014343
3.593	0.014648	0.15884	-0.024261	0.005035	0.010681	-0.079956	0.02182	0.004578	0.103	-0.034027	-0.033264	0.000458	0.090179	0.14862	-0.14938	-0.001526	0.010529	-0.10437	-0.78568	-0.088196	-0.14267	0.002594	0.42236	-0.041809	-0.050507	-0.003662	-0.86548	0.011444	-0.81741	0.061646	-0.003357	-0.019531
3.594	0.017853	0.18646	-0.016937	0.009155	0.018768	-0.083618	0.020752	0.009308	0.092773	-0.019531	0.061646	0.007629	0.077667	0.062103	-0.64453	0.004425	-0.039825	-0.015259	-0.26169	-0.11398	-0.22705	0.084991	0.005798	-0.13916	-0.073395	0.007019	-1.2766	-0.000305	-0.27008	0.050507	-0.004578	-0.01358
3.595	0.018616	0.14465	-0.017853	-0.009613	-0.001373	-0.09903	0.023346	0.003815	0.093842	-0.004578	0.042877	0.005951	0.074005	-0.030823	-0.57495	-0.024719	-0.026245	0.007935	0.22003	-0.13718	-0.10223	0.072174	-0.14267	-0.19623	0.037842	0.003815	-1.0818	-0.007019	0.17273	-0.023651	-0.002747	-0.012817
3.596	0.012512	0.11597	-0.021057	-0.005341	0.005035	-0.10315	0.031281	0.000916	0.083923	0.014191	0.034485	0.007172	0.10513	-0.048828	-0.30456	-0.025177	-0.005951	-0.024719	0.62088	-0.18555	0.062714	0.032654	-0.065613	-0.27527	0.18204	-0.014191	-0.74402	-0.004425	0.11978	-0.030823	-0.00473	-0.00412
3.597	0.015564	0.091095	-0.023193	0.012665	-0.007172	-0.10681	0.00824	0.004578	0.084381	0.007172	0.061798	0.006714	0.13275	-0.10925	-0.25757	-0.02121	0.003967	-0.072632	0.19608	0.029297	0.14557	-0.036011	-0.023651	-0.084991	0.1532	-0.001373	-0.19028	0.003204	-0.22598	-0.17334	-0.001373	-0.006409
3.598	0.012512	0.078583	-0.045929	0.019531	0.009155	-0.12009	0.034027	0.005035	0.078888	0.007477	0.003357	-0.001221	0.093689	-0.15656	-0.18066	-0.009308	-0.003967	-0.083313	0.60196	0.2034	0.067444	-0.032043	-0.15366	0.023956	0.10407	-0.010986	0.5629	-0.006561	0.76508	-0.034637	-0.000763	-0.011902
3.599	0.009766	0.067902	-0.044403	0.004425	-0.00412	-0.10346	0.010376	0.006256	0.074768	0.00473	0.013123	-0.000458	0.02182	-0.11932	-0.085144	-0.012817	-0.013885	0.049591	0.7045	0.26901	0.046082	-0.019989	-0.18112	0.075684	0.061951	-0.034332	0.77805	-0.001984	0.50507	0.2034	-0.001984	-0.012512
3.6	0.000305	0.036163	-0.046387	0.007782	0.016327	-0.090942	0.013428	0.002441	0.076599	-0.016479	0.006561	-0.004578	-0.013885	-0.08194	0.012665	-0.001221	0.006409	0.092316	0.25879	0.15793	0.015411	-0.023346	-0.20645	0.021515	0.024109	-0.025482	0.84747	-0.002899	0.24277	0.1651	-0.002136	-0.003815
3.601	0.010529	0.023804	-0.036316	-0.001831	0.006104	-0.067902	0.003204	0.002747	0.076294	-0.017242	0.003052	0.000153	-0.012207	0.007935	0.072784	0.006409	-0.004578	0.089111	0.16846	0.073853	0.007324	-0.0177	-0.14999	-0.028076	-0.066528	-0.00473	0.91278	0.00061	0.68436	-0.041504	-0.001526	0.007935
3.602	0.008087	0.002747	0.017853	-0.001984	-0.021362	-0.03067	0.007782	0.004425	0.077362	-0.021362	0.019379	0.001526	-0.011902	0.010223	0.11002	-0.014038	-0.010529	0.097809	-0.33737	0.000458	0.006714	-0.014343	-0.018616	-0.041962	-0.11917	0.001373	-0.21637	0.003357	0.6987	-0.054016	-0.000916	-0.004883
3.603	0.007477	0.003815	0.011749	0.008087	0.012665	-0.031433	0.019531	0.003967	0.071564	-0.039368	0.019836	-0.002136	-0.027313	-0.14923	0.12146	-0.012512	0.005798	0.15335	-0.088196	-0.033417	-0.00824	-0.018311	-0.17288	-0.16113	-0.16129	-0.00061	-1.1644	-0.002594	0.85129	-0.087433	-0.005493	0.004883
3.604	0.007935	-0.019073	0.020752	0.009003	-0.003357	-0.026855	0.015411	0.003662	0.067902	-0.036621	0.037689	-0.010376	-0.025787	-0.26413	0.10925	-0.007019	0.014038	0.10498	-0.56381	0.023499	-0.009766	-0.02655	-0.2887	-0.25467	-0.17105	-0.004272	-0.74921	-0.001373	0.43991	-0.13199	-0.001373	-0.005951
3.605	0.016937	0.002747	0.014191	-0.001526	-0.0383	-0.058441	0.009003	0.003357	0.054779	-0.029907	0.002289	0.004272	-0.023956	-0.2092	0.11566	-0.005646	0	0.10361	-0.25467	0.076447	-0.018768	-0.008545	-0.41946	-0.070801	-0.081329	-0.015869	-0.11993	-0.002747	-0.78369	-0.066681	-0.002594	-0.005798
3.606	0.012054	-0.032501	-0.019836	-0.001678	-0.02594	-0.11108	0.026855	0.000916	0.063629	-0.029449	0.033875	-0.014343	-0.041046	-0.099335	0.088501	0.002289	-0.000305	0.018768	-0.18951	0.038757	-0.031128	-0.023499	-0.54565	0.13504	0.10773	-0.022583	0.2066	-0.005798	-1.0403	0.068207	-0.003204	-0.016174
3.607	0.012054	-0.037384	-0.013885	0.008545	0.032043	-0.10178	0.015259	0.00412	0.066071	-0.030823	0.020752	-0.005646	-0.038605	-0.029144	0.06897	0.001831	-0.002136	-0.015106	-0.03891	-0.037079	-0.019073	-0.003357	-0.50156	0.39429	0.42053	-0.028076	0.29831	-0.001984	0.52521	0.18433	0.009308	-0.010681
3.608	0.014801	-0.03479	-0.024414	0.003967	0.019379	-0.023041	0.024719	0.006256	0.050659	-0.040588	0.024109	0.000153	-0.03891	-0.093842	0.062256	0.000305	0.010986	0.036316	-0.55435	-0.070801	0.025787	-0.006866	-0.17364	0.29068	0.30502	-0.017395	0.26489	-0.006561	-0.062561	0.24872	-0.002136	-0.012207
3.609	0.009766	-0.026703	-0.027161	0.017853	0.010986	0.00885	0.028839	0.004425	0.036926	-0.058899	0.028076	0.002899	-0.034943	0.005188	0.074463	0.00412	-0.009613	0.032806	-0.41092	-0.072021	0.003815	-0.032959	-0.056305	0.13229	0.18448	-0.001678	-0.007782	0.000763	0.38223	0.12131	-0.002136	-0.00885
